<mxfile host="app.diagrams.net" agent="Mozilla/5.0 (Windows NT 10.0; Win64; x64) AppleWebKit/537.36 (KHTML, like Gecko) Chrome/126.0.0.0 Safari/537.36" version="24.7.5">
  <diagram name="Page-1" id="B07gmvFxjkaI8Bdwane9">
    <mxGraphModel dx="880" dy="426" grid="1" gridSize="10" guides="1" tooltips="1" connect="1" arrows="1" fold="1" page="1" pageScale="1" pageWidth="850" pageHeight="1100" math="0" shadow="0">
      <root>
        <mxCell id="0" />
        <mxCell id="1" parent="0" />
        <mxCell id="QUYSR0-iRoP6TAA9n6ql-16" style="edgeStyle=orthogonalEdgeStyle;rounded=0;orthogonalLoop=1;jettySize=auto;html=1;entryX=0.5;entryY=0;entryDx=0;entryDy=0;" edge="1" parent="1" source="QUYSR0-iRoP6TAA9n6ql-1" target="QUYSR0-iRoP6TAA9n6ql-4">
          <mxGeometry relative="1" as="geometry" />
        </mxCell>
        <mxCell id="QUYSR0-iRoP6TAA9n6ql-1" value="UAT Org" style="sketch=0;html=1;aspect=fixed;strokeColor=none;shadow=0;fillColor=#3B8DF1;verticalAlign=top;labelPosition=center;verticalLabelPosition=bottom;shape=mxgraph.gcp2.repository" vertex="1" parent="1">
          <mxGeometry x="400" y="20" width="36" height="60" as="geometry" />
        </mxCell>
        <mxCell id="QUYSR0-iRoP6TAA9n6ql-3" value="PROD Org" style="sketch=0;html=1;aspect=fixed;strokeColor=none;shadow=0;fillColor=#3B8DF1;verticalAlign=top;labelPosition=center;verticalLabelPosition=bottom;shape=mxgraph.gcp2.repository" vertex="1" parent="1">
          <mxGeometry x="400" y="320" width="36" height="60" as="geometry" />
        </mxCell>
        <mxCell id="QUYSR0-iRoP6TAA9n6ql-17" style="edgeStyle=orthogonalEdgeStyle;rounded=0;orthogonalLoop=1;jettySize=auto;html=1;entryX=0.5;entryY=0;entryDx=0;entryDy=0;" edge="1" parent="1" source="QUYSR0-iRoP6TAA9n6ql-4" target="QUYSR0-iRoP6TAA9n6ql-6">
          <mxGeometry relative="1" as="geometry" />
        </mxCell>
        <mxCell id="QUYSR0-iRoP6TAA9n6ql-4" value="Export Asset" style="rounded=1;whiteSpace=wrap;html=1;" vertex="1" parent="1">
          <mxGeometry x="378" y="120" width="80" height="20" as="geometry" />
        </mxCell>
        <mxCell id="QUYSR0-iRoP6TAA9n6ql-18" style="edgeStyle=orthogonalEdgeStyle;rounded=0;orthogonalLoop=1;jettySize=auto;html=1;entryX=0.5;entryY=0;entryDx=0;entryDy=0;" edge="1" parent="1" source="QUYSR0-iRoP6TAA9n6ql-6" target="QUYSR0-iRoP6TAA9n6ql-10">
          <mxGeometry relative="1" as="geometry" />
        </mxCell>
        <mxCell id="QUYSR0-iRoP6TAA9n6ql-20" style="edgeStyle=orthogonalEdgeStyle;rounded=0;orthogonalLoop=1;jettySize=auto;html=1;entryX=0.5;entryY=0;entryDx=0;entryDy=0;" edge="1" parent="1" source="QUYSR0-iRoP6TAA9n6ql-6" target="QUYSR0-iRoP6TAA9n6ql-9">
          <mxGeometry relative="1" as="geometry" />
        </mxCell>
        <mxCell id="QUYSR0-iRoP6TAA9n6ql-6" value="Exist?" style="rhombus;whiteSpace=wrap;html=1;" vertex="1" parent="1">
          <mxGeometry x="393" y="180" width="50" height="50" as="geometry" />
        </mxCell>
        <mxCell id="QUYSR0-iRoP6TAA9n6ql-9" value="Update Asset/Import Asset" style="rounded=1;whiteSpace=wrap;html=1;" vertex="1" parent="1">
          <mxGeometry x="480" y="250" width="127" height="30" as="geometry" />
        </mxCell>
        <mxCell id="QUYSR0-iRoP6TAA9n6ql-10" value="Create Asset/Import Asset" style="rounded=1;whiteSpace=wrap;html=1;" vertex="1" parent="1">
          <mxGeometry x="230" y="250" width="130" height="30" as="geometry" />
        </mxCell>
        <mxCell id="QUYSR0-iRoP6TAA9n6ql-21" style="edgeStyle=orthogonalEdgeStyle;rounded=0;orthogonalLoop=1;jettySize=auto;html=1;entryX=-0.028;entryY=0.7;entryDx=0;entryDy=0;entryPerimeter=0;" edge="1" parent="1" source="QUYSR0-iRoP6TAA9n6ql-10" target="QUYSR0-iRoP6TAA9n6ql-3">
          <mxGeometry relative="1" as="geometry" />
        </mxCell>
        <mxCell id="QUYSR0-iRoP6TAA9n6ql-22" style="edgeStyle=orthogonalEdgeStyle;rounded=0;orthogonalLoop=1;jettySize=auto;html=1;entryX=1.028;entryY=0.667;entryDx=0;entryDy=0;entryPerimeter=0;" edge="1" parent="1" source="QUYSR0-iRoP6TAA9n6ql-9" target="QUYSR0-iRoP6TAA9n6ql-3">
          <mxGeometry relative="1" as="geometry" />
        </mxCell>
      </root>
    </mxGraphModel>
  </diagram>
</mxfile>
